<?xml version="1.0" encoding="utf-8"?>
<!-- Svg Vector Icons : http://www.onlinewebfonts.com/icon -->
<!DOCTYPE svg PUBLIC "-//W3C//DTD SVG 1.1//EN" "http://www.w3.org/Graphics/SVG/1.1/DTD/svg11.dtd">
<svg version="1.1" xmlns="http://www.w3.org/2000/svg" xmlns:xlink="http://www.w3.org/1999/xlink" x="0px" y="0px" viewBox="0 0 1000 1000" enable-background="new 0 0 1000 1000" xml:space="preserve">
<metadata> Svg Vector Icons : http://www.onlinewebfonts.com/icon </metadata>
<g><path d="M335.4,785.5c6.5,40.6-5.9,83.7-37.1,115c-51.8,51.8-136,51.8-187.8,0c-51.8-51.8-51.8-136,0-187.8c31.3-31.3,74.4-43.6,115-37.1c14.3-15.3,27.3-30.1,38.8-44.3c-64.8-22-139.4-7.3-191,44.3c-72.2,72.2-72.2,189.8,0,262.1c72.2,72.2,189.8,72.2,262.1,0c51.5-51.5,66.3-126.1,44.3-190.9C365.6,758.2,350.7,771.2,335.4,785.5z"/><path d="M742.9,624.6c11.3,14.2,24.1,29.1,38.2,44.5c40.6-6.4,83.6,6,114.8,37.2c51.8,51.8,51.8,136,0,187.8c-51.8,51.8-136,51.8-187.8,0c-31.2-31.2-43.6-74.1-37.2-114.7c-15.4-14.1-30.3-26.9-44.5-38.2c-21.6,64.5-6.7,138.7,44.6,190c72.3,72.2,189.8,72.2,262.1,0c72.2-72.2,72.3-189.8,0-262.1C881.6,617.8,807.4,603,742.9,624.6z"/><path d="M673.7,227.1c-6.4-40.6,5.9-83.6,37.2-114.8c51.8-51.8,136-51.8,187.8,0c51.8,51.8,51.8,136,0,187.8c-31.2,31.2-74.2,43.6-114.8,37.2c-14.7,15.9-27.4,30.7-38.5,44.4c64.6,21.8,139,7,190.4-44.4c72.3-72.3,72.3-189.8,0-262.1C863.6,2.9,746,2.9,673.8,75.1c-51.4,51.4-66.2,125.8-44.4,190.5C642.7,254.8,657.5,242.1,673.7,227.1z"/><path d="M256.3,368.4c-11.9-14.2-25.2-28.9-39.5-44c-40.8,6.7-84.1-5.6-115.5-37c-51.8-51.8-51.8-136,0-187.8c51.8-51.8,136-51.8,187.8,0c31.4,31.4,43.7,74.8,37,115.6c15,14.3,29.8,27.6,44,39.5c22.6-65.1,8-140.3-43.9-192.2C254-9.8,136.4-9.8,64.2,62.4c-72.2,72.3-72.2,189.8,0,262.1C116.1,376.3,191.3,391,256.3,368.4z"/><path d="M506.1,450.2c-14.5,0-28,5.6-38.3,15.8c-10.2,10.2-15.9,23.8-15.9,38.3c0,14.4,5.6,28,15.8,38.3c10.2,10.2,23.8,15.8,38.3,15.8c14.4,0,28-5.6,38.3-15.8c21.1-21.1,21.1-55.4,0-76.5C534.2,455.9,520.6,450.2,506.1,450.2z"/><path d="M765.1,820.3c3.1,3.3,10.6,11.8,12.2,13.4c0.3,0.3,0.5,0.5,0.8,0.7c0.8,0.9,1.3,1.3,1.3,1.3c18.4,16.6,45,17.8,60.5,2.3c14.5-14.5,14.4-38.8,0.6-57c-1.5-1.9-9.3-9.5-11.8-11.7c-1.5-1.3-2.8-2.4-3.3-2.9c-42.4-39.3-180.7-173.6-178-252.3c0.1-3.3,0-17.1,0-21.1c-0.4-79,136-211.4,178-250.3c0.5-0.5,1.8-1.6,3.3-2.9c2.5-2.1,10.3-9.7,11.8-11.7c13.8-18.2,13.9-42.4-0.6-57c-15.5-15.5-42-14.3-60.5,2.3c0,0-0.5,0.4-1.3,1.3c-0.3,0.2-0.5,0.5-0.8,0.7c-1.6,1.6-9.1,10.1-12.2,13.4c-41.4,44.3-163.9,168.6-241.3,174.5c-6.1,0.5-27,0.4-32.1,0.2c-79.3-3.1-208.8-136.5-247.2-178c-0.5-0.5-1.6-1.8-2.9-3.3c-2.1-2.5-9.7-10.3-11.7-11.8c-18.2-13.8-42.4-13.9-57,0.6c-15.5,15.5-14.3,42,2.3,60.5c0,0,0.4,0.5,1.3,1.3c0.2,0.3,0.5,0.5,0.7,0.8c1.6,1.6,10.1,9.1,13.4,12.2c43.2,40.3,162.2,157.6,173.8,235.2c1.2,8.4,1.2,42.5-1.1,53C346.9,611.6,232.8,724,190.7,763.3c-3.3,3.1-11.8,10.6-13.4,12.2c-0.3,0.3-0.5,0.5-0.7,0.8c-0.9,0.8-1.3,1.3-1.3,1.3c-16.6,18.4-17.8,45-2.3,60.5c14.5,14.5,38.8,14.4,57,0.6c1.9-1.5,9.5-9.3,11.7-11.8c1.3-1.5,2.4-2.8,2.9-3.3C282,783.1,406.4,655,486,646.1c7.2-0.8,32.6-0.8,39.2-0.2C602.8,653.2,724,776.2,765.1,820.3z M565.6,563.8c-15.9,15.9-37,24.6-59.5,24.6c-22.5,0-43.6-8.8-59.5-24.6c-15.9-15.9-24.6-37-24.6-59.5c0-22.5,8.8-43.6,24.6-59.5c15.9-15.9,37-24.6,59.5-24.6c22.5,0,43.6,8.7,59.5,24.6C598.4,477.7,598.4,531,565.6,563.8z"/></g>
</svg>